<?xml version="1.0" encoding="UTF-8"?>
<svg preserveAspectRatio="xMidYMid" version="1.1" viewBox="0 0 512 95" xmlns="http://www.w3.org/2000/svg">
<title>Qualcomm</title>
<path d="m138.19 26.985c1.3721 0 2.5482 1.1108 2.5482 2.5482v48.677c0 1.3721-1.2414 2.4829-2.5482 2.4829h-6.5992c-1.2414 0-2.4829-0.98008-2.4829-2.3522v-4.5084c-3.3323 4.9004-9.0821 8.298-17.445 8.298-13.982 0-22.607-9.2781-22.607-23.065v-29.664c0-1.3721 1.2414-2.4829 2.5482-2.4829h6.5992c1.3721 0 2.4829 1.1108 2.4829 2.4829v27.769c0 8.9514 4.7044 14.897 13.982 14.897 9.0821 0 14.44-6.1418 14.44-14.767v-27.9c0-1.3721 1.2414-2.4829 2.4829-2.4829h6.5992m-97.354-26.919c-22.607 0-40.837 17.576-40.837 41.033 0 23.522 18.229 41.033 40.837 41.033 3.855 0 7.5793-0.52271 11.108-1.5028l4.443 11.434c0.45737 1.2414 1.3721 2.0255 3.0056 2.0255h7.0566c1.6988 0 2.9402-1.1108 2.1562-3.2669l-5.7498-14.963c11.304-7.1219 18.818-19.732 18.818-34.825 0-23.391-18.229-40.967-40.837-40.967m17.772 64.881-5.1617-13.394c-0.45737-1.1108-1.3721-2.1562-3.3323-2.1562h-6.7299c-1.6988 0-3.0056 1.1108-2.2215 3.2669l6.7952 17.576c-2.2215 0.58805-4.639 0.8494-7.1219 0.8494-16.531 0-28.292-13.002-28.292-29.99s11.761-29.99 28.292-29.99 28.292 13.002 28.292 29.99c0 9.9315-3.9857 18.425-10.52 23.849m453.19 13.068c0.58805 1.3721-0.13068 2.6789-1.7641 2.6789h-7.3833c-1.3721 0-2.4829-0.65339-2.9402-2.0255l-13.656-36.72-13.852 36.72c-0.58805 1.4374-1.5681 2.0255-2.9402 2.0255h-6.5992c-1.3721 0-2.3522-0.58805-2.9402-2.0255l-13.982-36.916-13.786 36.916c-0.58805 1.3721-1.5681 2.0255-2.9402 2.0255h-6.9259c-1.3721 0-2.3522-0.65339-2.9402-2.0255l-13.656-36.916-14.113 36.916c-0.58805 1.4374-1.5681 2.0255-2.9402 2.0255h-6.5992c-1.3721 0-2.3522-0.58805-2.9402-2.0255l-13.786-36.916-13.786 36.916c-0.45737 1.3721-1.5681 2.0255-2.9402 2.0255h-7.1872c-1.6988 0-2.3522-1.3721-1.7641-2.6789l18.687-48.873c0.58805-1.4374 1.5681-2.1562 2.9402-2.1562h8.0366c1.3721 0 2.3522 0.65339 2.9402 2.1562l13.46 35.675 13.329-35.675c0.58805-1.4374 1.5681-2.1562 2.9402-2.1562h7.906c1.3721 0 2.3522 0.65339 2.9402 2.1562l13.198 35.675 13.198-35.675c0.58805-1.4374 1.5681-2.1562 2.9402-2.1562h7.9713c1.3721 0 2.3522 0.65339 2.9402 2.1562l13.394 35.675 13.068-35.675c0.58805-1.4374 1.5681-2.1562 2.9402-2.1562h8.0366c1.3721 0 2.3522 0.65339 2.9402 2.1562l18.556 48.873m-309.64-50.964h-6.5992c-1.3721 0-2.5482 1.1108-2.5482 2.5482v4.443c-3.3323-5.0311-9.8661-8.6247-17.576-8.6247-14.57 0-27.05 11.5-27.05 28.292 0 16.988 12.545 28.422 26.985 28.422 7.8406 0 14.178-3.5936 17.707-8.6247v4.7044c0 1.3721 1.2414 2.4829 2.5482 2.4829h6.5992c1.3721 0 2.4829-1.1108 2.4829-2.4829v-48.612c-0.065339-1.4374-1.1761-2.5482-2.5482-2.5482m-25.482 44.365c-9.6048 0-16.465-7.8406-16.465-17.576 0-9.8661 6.7952-17.445 16.465-17.445 9.5394 0 16.465 7.5793 16.465 17.445-0.065338 9.8008-6.9912 17.576-16.465 17.576m104.21 1.6988c1.4374 1.7641 0.19602 3.1363-0.58805 3.7243-4.5737 3.4629-10.65 5.3578-17.249 5.3578-16.661 0-27.769-12.218-27.769-28.292s11.108-28.422 27.769-28.422c6.5992 0 12.61 1.8948 17.249 5.3578 0.78406 0.58805 1.8948 1.7641 0.58805 3.7243l-3.1363 4.3777c-1.2414 1.6988-2.6789 1.2414-3.9203 0.45737-2.9402-1.7641-6.4032-3.2669-10.389-3.2669-9.7354 0-16.204 7.8406-16.204 17.772s6.4685 17.707 16.204 17.707c4.051 0 7.2526-1.5681 10.193-3.2669 1.2414-0.65339 2.5482-1.2414 3.9203 0.58805l3.3323 4.1817zm31.101-47.566c-15.681 0-28.161 12.284-28.161 28.292 0 16.139 12.545 28.292 28.161 28.292 15.681 0 28.161-12.218 28.161-28.292 0.065085-15.943-12.48-28.292-28.161-28.292m0 45.802c-9.6048 0-16.465-7.7099-16.465-17.445 0-9.8661 6.7952-17.445 16.465-17.445 9.6048 0 16.465 7.5793 16.465 17.445 0 9.7354-6.7952 17.445-16.465 17.445m-86.704-69.847c1.4374 0 2.4829 1.2414 2.4829 2.5482v74.094c0 1.3721-0.98008 2.5482-2.4829 2.5482h-6.5992c-1.3721 0-2.5482-1.2414-2.5482-2.5482v-74.029c0-1.3721 1.2414-2.5482 2.5482-2.5482h6.5992" fill="#3253DC"/>
</svg>
